# Blender v2.93.3 OBJ File: '3DName.blend'
# www.blender.org
mtllib A.mtl
o Text.005
v 4.638692 0.628436 -0.267721
v 4.870850 0.048797 -0.253968
v 4.743499 0.048797 -0.253968
v 4.692875 0.180462 -0.257092
v 4.461112 0.180462 -0.257092
v 4.413257 0.048797 -0.253968
v 4.289070 0.048797 -0.253968
v 4.514900 0.628436 -0.267721
v 4.497103 0.278123 -0.259409
v 4.655303 0.278123 -0.259409
v 4.575412 0.493214 -0.264512
v 4.638692 0.624167 -0.447670
v 4.870850 0.044528 -0.433917
v 4.743499 0.044528 -0.433917
v 4.692875 0.176192 -0.437041
v 4.461112 0.176192 -0.437041
v 4.413257 0.044528 -0.433918
v 4.289070 0.044528 -0.433918
v 4.514900 0.624167 -0.447670
v 4.497103 0.273853 -0.439358
v 4.655303 0.273853 -0.439358
v 4.575412 0.488944 -0.444462
v 4.638692 0.624167 -0.447670
v 4.638692 0.628436 -0.267721
v 4.870850 0.044528 -0.433917
v 4.870850 0.048797 -0.253968
v 4.743499 0.044528 -0.433917
v 4.743499 0.048797 -0.253968
v 4.692875 0.176192 -0.437041
v 4.692875 0.180462 -0.257092
v 4.461112 0.176192 -0.437041
v 4.461112 0.180462 -0.257092
v 4.413257 0.044528 -0.433918
v 4.413257 0.048797 -0.253968
v 4.289070 0.044528 -0.433918
v 4.289070 0.048797 -0.253968
v 4.514900 0.624167 -0.447670
v 4.514900 0.628436 -0.267721
v 4.497103 0.273853 -0.439358
v 4.497103 0.278123 -0.259409
v 4.655303 0.273853 -0.439358
v 4.655303 0.278123 -0.259409
v 4.575412 0.488944 -0.444462
v 4.575412 0.493214 -0.264512
vt 0.600000 0.000000
vt 0.000000 0.000000
vt 0.700000 0.000000
vt 1.000000 0.000000
vt 0.100000 0.000000
vt 0.800000 0.000000
vt 0.900000 0.000000
vt 0.400000 0.000000
vt 0.300000 0.000000
vt 0.500000 0.000000
vt 0.200000 0.000000
vt 0.600000 0.000000
vt 0.700000 0.000000
vt 0.000000 0.000000
vt 1.000000 0.000000
vt 0.100000 0.000000
vt 0.800000 0.000000
vt 0.900000 0.000000
vt 0.400000 0.000000
vt 0.300000 0.000000
vt 0.500000 0.000000
vt 0.200000 0.000000
vt 0.000000 1.000000
vt 0.125000 1.000000
vt 0.125000 0.000000
vt 0.000000 0.000000
vt 0.250000 1.000000
vt 0.250000 0.000000
vt 0.375000 1.000000
vt 0.375000 0.000000
vt 0.500000 1.000000
vt 0.500000 0.000000
vt 0.625000 1.000000
vt 0.625000 0.000000
vt 0.750000 1.000000
vt 0.750000 0.000000
vt 0.875000 1.000000
vt 0.875000 0.000000
vt 1.000000 1.000000
vt 1.000000 0.000000
vt 0.000000 1.000000
vt 0.333333 1.000000
vt 0.333333 0.000000
vt 0.000000 0.000000
vt 0.666667 1.000000
vt 0.666667 0.000000
vt 1.000000 1.000000
vt 1.000000 0.000000
vn -0.0000 0.0237 0.9997
vn 0.0000 -0.0237 -0.9997
vn 0.5605 0.8279 -0.0196
vn 0.8282 -0.5603 0.0133
vn -0.5662 -0.8240 0.0195
vn 0.5738 -0.8188 0.0194
vn -0.8255 -0.5642 0.0134
vn -0.5644 0.8253 -0.0196
vn 0.8191 0.5734 -0.0136
vn -0.8210 0.5708 -0.0135
vn 0.0032 -0.9997 0.0237
usemtl None
s off
f 7/1/1 1/2/1 8/3/1
f 7/1/1 11/4/1 1/2/1
f 11/4/1 2/5/1 1/2/1
f 7/1/1 9/6/1 11/4/1
f 10/7/1 2/5/1 11/4/1
f 7/1/1 5/8/1 9/6/1
f 5/8/1 10/7/1 9/6/1
f 5/8/1 4/9/1 10/7/1
f 4/9/1 2/5/1 10/7/1
f 7/1/1 6/10/1 5/8/1
f 3/11/1 2/5/1 4/9/1
f 18/12/2 19/13/2 12/14/2
f 18/12/2 12/14/2 22/15/2
f 22/15/2 12/14/2 13/16/2
f 18/12/2 22/15/2 20/17/2
f 21/18/2 22/15/2 13/16/2
f 18/12/2 20/17/2 16/19/2
f 16/19/2 20/17/2 21/18/2
f 16/19/2 21/18/2 15/20/2
f 15/20/2 21/18/2 13/16/2
f 18/12/2 16/19/2 17/21/2
f 14/22/2 15/20/2 13/16/2
s 1
f 24/23/3 26/24/4 25/25/4 23/26/3
f 26/24/4 28/27/5 27/28/5 25/25/4
f 28/27/5 30/29/5 29/30/5 27/28/5
f 30/29/5 32/31/6 31/32/6 29/30/5
f 32/31/6 34/33/6 33/34/6 31/32/6
f 34/33/6 36/35/7 35/36/7 33/34/6
f 36/35/7 38/37/8 37/38/8 35/36/7
f 38/37/8 24/39/3 23/40/3 37/38/8
f 40/41/9 42/42/10 41/43/10 39/44/9
f 42/42/10 44/45/11 43/46/11 41/43/10
f 44/45/11 40/47/9 39/48/9 43/46/11
