# Blender v2.93.3 OBJ File: '3DName.blend'
# www.blender.org
mtllib TIVE.mtl
o Text.007
v 3.598556 0.048797 1.282253
v 3.157574 0.048797 1.282253
v 3.157574 0.628436 1.268500
v 3.587482 0.628437 1.268500
v 3.587482 0.530380 1.270827
v 3.274642 0.530380 1.270827
v 3.274642 0.401879 1.273875
v 3.565730 0.401879 1.273875
v 3.565730 0.304218 1.276193
v 3.274642 0.304218 1.276193
v 3.274642 0.146458 1.279936
v 3.598556 0.146458 1.279936
v 2.948217 0.048797 1.282253
v 2.823239 0.048797 1.282253
v 2.615997 0.628436 1.268500
v 2.742952 0.628436 1.268500
v 2.889683 0.199440 1.278679
v 3.031667 0.628436 1.268500
v 3.155854 0.628436 1.268500
v 2.621791 0.048797 1.282253
v 2.504723 0.048797 1.282253
v 2.504723 0.628436 1.268500
v 2.621791 0.628436 1.268500
v 2.319096 0.048797 1.282253
v 2.202028 0.048797 1.282253
v 2.202028 0.530380 1.270827
v 2.029986 0.530380 1.270827
v 2.029986 0.628436 1.268500
v 2.490742 0.628436 1.268500
v 2.490742 0.530380 1.270827
v 2.319096 0.530380 1.270827
v 3.598556 0.044528 1.102303
v 3.157574 0.044528 1.102303
v 3.157574 0.624167 1.088551
v 3.587482 0.624167 1.088551
v 3.587482 0.526111 1.090877
v 3.274642 0.526111 1.090877
v 3.274642 0.397610 1.093926
v 3.565730 0.397610 1.093926
v 3.565730 0.299949 1.096243
v 3.274642 0.299949 1.096243
v 3.274642 0.142189 1.099986
v 3.598556 0.142189 1.099986
v 2.948217 0.044528 1.102303
v 2.823239 0.044528 1.102303
v 2.615997 0.624167 1.088551
v 2.742952 0.624167 1.088551
v 2.889683 0.195171 1.098729
v 3.031667 0.624167 1.088551
v 3.155854 0.624167 1.088551
v 2.621791 0.044528 1.102303
v 2.504723 0.044528 1.102303
v 2.504723 0.624167 1.088551
v 2.621791 0.624167 1.088551
v 2.319096 0.044528 1.102303
v 2.202028 0.044528 1.102303
v 2.202028 0.526111 1.090877
v 2.029986 0.526111 1.090877
v 2.029986 0.624167 1.088551
v 2.490742 0.624167 1.088551
v 2.490742 0.526111 1.090877
v 2.319096 0.526111 1.090877
v 2.319096 0.044528 1.102303
v 2.319096 0.048797 1.282253
v 2.202028 0.044528 1.102303
v 2.202028 0.048797 1.282253
v 2.202028 0.526111 1.090877
v 2.202028 0.530380 1.270827
v 2.029986 0.526111 1.090877
v 2.029986 0.530380 1.270827
v 2.029986 0.624167 1.088551
v 2.029986 0.628436 1.268500
v 2.490742 0.624167 1.088551
v 2.490742 0.628436 1.268500
v 2.490742 0.526111 1.090877
v 2.490742 0.530380 1.270827
v 2.319096 0.526111 1.090877
v 2.319096 0.530380 1.270827
v 2.621791 0.044528 1.102303
v 2.621791 0.048797 1.282253
v 2.504723 0.044528 1.102303
v 2.504723 0.048797 1.282253
v 2.504723 0.624167 1.088551
v 2.504723 0.628436 1.268500
v 2.621791 0.624167 1.088551
v 2.621791 0.628436 1.268500
v 2.948217 0.044528 1.102303
v 2.948217 0.048797 1.282253
v 2.823239 0.044528 1.102303
v 2.823239 0.048797 1.282253
v 2.615997 0.624167 1.088551
v 2.615997 0.628436 1.268500
v 2.742952 0.624167 1.088551
v 2.742952 0.628436 1.268500
v 2.889683 0.195171 1.098729
v 2.889683 0.199440 1.278679
v 3.031667 0.624167 1.088551
v 3.031667 0.628436 1.268500
v 3.155854 0.624167 1.088551
v 3.155854 0.628436 1.268500
v 3.598556 0.044528 1.102303
v 3.598556 0.048797 1.282253
v 3.157574 0.044528 1.102303
v 3.157574 0.048797 1.282253
v 3.157574 0.624167 1.088551
v 3.157574 0.628436 1.268500
v 3.587482 0.624167 1.088551
v 3.587482 0.628437 1.268500
v 3.587482 0.526111 1.090877
v 3.587482 0.530380 1.270827
v 3.274642 0.526111 1.090877
v 3.274642 0.530380 1.270827
v 3.274642 0.397610 1.093926
v 3.274642 0.401879 1.273875
v 3.565730 0.397610 1.093926
v 3.565730 0.401879 1.273875
v 3.565730 0.299949 1.096243
v 3.565730 0.304218 1.276193
v 3.274642 0.299949 1.096243
v 3.274642 0.304218 1.276193
v 3.274642 0.142189 1.099986
v 3.274642 0.146458 1.279936
v 3.598556 0.142189 1.099986
v 3.598556 0.146458 1.279936
vt 0.090909 0.000000
vt 0.454545 0.000000
vt 0.181818 0.000000
vt 0.272727 0.000000
vt 0.363636 0.000000
vt 0.545455 0.000000
vt 0.818182 0.000000
vt 0.636364 0.000000
vt 0.727273 0.000000
vt 0.909091 0.000000
vt 1.000000 0.000000
vt 0.000000 0.000000
vt 0.166667 0.000000
vt 0.500000 0.000000
vt 0.333333 0.000000
vt 0.666667 0.000000
vt 1.000000 0.000000
vt 0.833333 0.000000
vt 0.000000 0.000000
vt 0.333333 0.000000
vt 1.000000 0.000000
vt 0.666667 0.000000
vt 0.000000 0.000000
vt 0.428571 0.000000
vt 0.714286 0.000000
vt 0.571429 0.000000
vt 0.857143 0.000000
vt 0.285714 0.000000
vt 0.142857 0.000000
vt 1.000000 0.000000
vt 0.000000 0.000000
vt 0.090909 0.000000
vt 0.181818 0.000000
vt 0.454545 0.000000
vt 0.272727 0.000000
vt 0.363636 0.000000
vt 0.545455 0.000000
vt 0.818182 0.000000
vt 0.636364 0.000000
vt 0.727273 0.000000
vt 0.909091 0.000000
vt 1.000000 0.000000
vt 0.000000 0.000000
vt 0.166667 0.000000
vt 0.333333 0.000000
vt 0.500000 0.000000
vt 0.666667 0.000000
vt 0.833333 0.000000
vt 1.000000 0.000000
vt 0.000000 0.000000
vt 0.333333 0.000000
vt 0.666667 0.000000
vt 1.000000 0.000000
vt 0.000000 0.000000
vt 0.428571 0.000000
vt 0.571429 0.000000
vt 0.714286 0.000000
vt 0.857143 0.000000
vt 0.285714 0.000000
vt 0.142857 0.000000
vt 1.000000 0.000000
vt 0.000000 0.000000
vt 0.000000 1.000000
vt 0.125000 1.000000
vt 0.125000 0.000000
vt 0.000000 0.000000
vt 0.250000 1.000000
vt 0.250000 0.000000
vt 0.375000 1.000000
vt 0.375000 0.000000
vt 0.500000 1.000000
vt 0.500000 0.000000
vt 0.625000 1.000000
vt 0.625000 0.000000
vt 0.750000 1.000000
vt 0.750000 0.000000
vt 0.875000 1.000000
vt 0.875000 0.000000
vt 1.000000 1.000000
vt 1.000000 0.000000
vt 0.000000 1.000000
vt 0.250000 1.000000
vt 0.250000 0.000000
vt 0.000000 0.000000
vt 0.500000 1.000000
vt 0.500000 0.000000
vt 0.750000 1.000000
vt 0.750000 0.000000
vt 1.000000 1.000000
vt 1.000000 0.000000
vt 0.000000 1.000000
vt 0.142857 1.000000
vt 0.142857 0.000000
vt 0.000000 0.000000
vt 0.285714 1.000000
vt 0.285714 0.000000
vt 0.428571 1.000000
vt 0.428571 0.000000
vt 0.571429 1.000000
vt 0.571429 0.000000
vt 0.714286 1.000000
vt 0.714286 0.000000
vt 0.857143 1.000000
vt 0.857143 0.000000
vt 1.000000 1.000000
vt 1.000000 0.000000
vt 0.000000 1.000000
vt 0.083333 1.000000
vt 0.083333 0.000000
vt 0.000000 0.000000
vt 0.166667 1.000000
vt 0.166667 0.000000
vt 0.250000 1.000000
vt 0.250000 0.000000
vt 0.333333 1.000000
vt 0.333333 0.000000
vt 0.416667 1.000000
vt 0.416667 0.000000
vt 0.500000 1.000000
vt 0.500000 0.000000
vt 0.583333 1.000000
vt 0.583333 0.000000
vt 0.666667 1.000000
vt 0.666667 0.000000
vt 0.750000 1.000000
vt 0.750000 0.000000
vt 0.833333 1.000000
vt 0.833333 0.000000
vt 0.916667 1.000000
vt 0.916667 0.000000
vt 1.000000 1.000000
vt 1.000000 0.000000
vn 0.0000 0.0237 0.9997
vn 0.0000 0.0000 1.0000
vn -0.0000 -0.0237 -0.9997
vn 0.7071 -0.7069 0.0168
vn -0.7071 -0.7069 0.0168
vn -0.7071 0.7069 -0.0168
vn 0.7071 0.7069 -0.0168
vn 0.5757 -0.8174 0.0194
vn -0.5759 -0.8173 0.0194
vn -0.8175 0.5758 -0.0136
vn 0.5816 0.8133 -0.0193
vn -0.0049 0.9997 -0.0237
vn -0.5856 0.8104 -0.0192
vn 0.8177 0.5755 -0.0136
usemtl None
s off
f 2/1/1 6/2/1 3/3/1
f 6/2/1 4/4/1 3/3/1
f 6/2/1 5/5/1 4/4/1
f 2/1/1 7/6/1 6/2/1
f 2/1/1 10/7/1 7/6/1
f 10/7/1 8/8/1 7/6/1
f 10/7/1 9/9/1 8/8/1
f 2/1/1 11/10/1 10/7/1
f 2/1/1 12/11/1 11/10/1
f 2/1/1 1/12/1 12/11/1
f 14/13/1 16/14/1 15/15/1
f 14/13/1 17/16/1 16/14/1
f 17/16/1 19/17/1 18/18/1
f 17/16/1 13/19/1 19/17/1
f 14/13/1 13/19/1 17/16/1
f 21/20/1 23/21/1 22/22/1
f 21/20/1 20/23/1 23/21/1
f 27/24/1 29/25/1 28/26/1
f 27/24/1 30/27/1 29/25/1
f 26/28/2 30/27/2 27/24/2
f 25/29/1 31/30/1 26/28/1
f 31/30/2 30/27/2 26/28/2
f 25/29/1 24/31/1 31/30/1
f 33/32/3 34/33/3 37/34/3
f 37/34/3 34/33/3 35/35/3
f 37/34/3 35/35/3 36/36/3
f 33/32/3 37/34/3 38/37/3
f 33/32/3 38/37/3 41/38/3
f 41/38/3 38/37/3 39/39/3
f 41/38/3 39/39/3 40/40/3
f 33/32/3 41/38/3 42/41/3
f 33/32/3 42/41/3 43/42/3
f 33/32/3 43/42/3 32/43/3
f 45/44/3 46/45/3 47/46/3
f 45/44/3 47/46/3 48/47/3
f 48/47/3 49/48/3 50/49/3
f 48/47/3 50/49/3 44/50/3
f 45/44/3 48/47/3 44/50/3
f 52/51/3 53/52/3 54/53/3
f 52/51/3 54/53/3 51/54/3
f 58/55/3 59/56/3 60/57/3
f 58/55/3 60/57/3 61/58/3
f 57/59/2 58/55/2 61/58/2
f 56/60/3 57/59/3 62/61/3
f 62/61/2 57/59/2 61/58/2
f 56/60/3 62/61/3 55/62/3
s 1
f 64/63/4 66/64/5 65/65/5 63/66/4
f 66/64/5 68/67/5 67/68/5 65/65/5
f 68/67/5 70/69/5 69/70/5 67/68/5
f 70/69/5 72/71/6 71/72/6 69/70/5
f 72/71/6 74/73/7 73/74/7 71/72/6
f 74/73/7 76/75/4 75/76/4 73/74/7
f 76/75/4 78/77/4 77/78/4 75/76/4
f 78/77/4 64/79/4 63/80/4 77/78/4
f 80/81/4 82/82/5 81/83/5 79/84/4
f 82/82/5 84/85/6 83/86/6 81/83/5
f 84/85/6 86/87/7 85/88/7 83/86/6
f 86/87/7 80/89/4 79/90/4 85/88/7
f 88/91/8 90/92/9 89/93/9 87/94/8
f 90/92/9 92/95/10 91/96/10 89/93/9
f 92/95/10 94/97/11 93/98/11 91/96/10
f 94/97/11 96/99/12 95/100/12 93/98/11
f 96/99/12 98/101/13 97/102/13 95/100/12
f 98/101/13 100/103/14 99/104/14 97/102/13
f 100/103/14 88/105/8 87/106/8 99/104/14
f 102/107/4 104/108/5 103/109/5 101/110/4
f 104/108/5 106/111/6 105/112/6 103/109/5
f 106/111/6 108/113/7 107/114/7 105/112/6
f 108/113/7 110/115/4 109/116/4 107/114/7
f 110/115/4 112/117/4 111/118/4 109/116/4
f 112/117/4 114/119/7 113/120/7 111/118/4
f 114/119/7 116/121/7 115/122/7 113/120/7
f 116/121/7 118/123/4 117/124/4 115/122/7
f 118/123/4 120/125/4 119/126/4 117/124/4
f 120/125/4 122/127/7 121/128/7 119/126/4
f 122/127/7 124/129/7 123/130/7 121/128/7
f 124/129/7 102/131/4 101/132/4 123/130/7
